<svg id="圖層_1" data-name="圖層 1" xmlns="http://www.w3.org/2000/svg" viewBox="0 0 595.28 266.26"><defs><style>.cls-1{fill:#f8ce70;}</style></defs><g id="_8mpfox" data-name="8mpfox"><path class="cls-1" d="M0,266.26V0H595.28V209.24c-2,.25-4.08.51-6.12.72-9.34,1-18.68,1.93-28,2.83-7.11.68-14.24,1.21-21.35,1.87-7.76.72-15.52,1.53-23.28,2.27-6.64.63-13.29,1.2-19.93,1.83-7.76.74-15.51,1.54-23.27,2.29-6.74.64-13.48,1.21-20.22,1.86-7.57.72-15.14,1.52-22.71,2.24-6.83.65-13.67,1.21-20.5,1.86-7.67.73-15.33,1.53-23,2.26-6.74.64-13.48,1.21-20.21,1.85-7.67.73-15.33,1.54-23,2.27-6.73.64-13.47,1.18-20.2,1.86-9,.9-17.93,1.92-26.9,2.83-6.73.68-13.47,1.24-20.21,1.89-7.38.72-14.76,1.51-22.15,2.22-7,.66-14,1.23-21.06,1.89-7.57.71-15.14,1.53-22.71,2.21s-15.37,1.2-23.05,1.89-15.52,1.52-23.28,2.26c-6.73.64-13.48,1.21-20.21,1.86-9.54.92-19.07,1.91-28.6,2.82-6.93.67-13.86,1.23-20.78,1.9-9.35.9-18.69,1.9-28,2.79-7.11.68-14.23,1.21-21.34,1.88q-14.74,1.38-29.46,2.87C10.45,265.08,5.23,265.69,0,266.26Z"/></g></svg>